<?xml version="1.0" encoding="UTF-8" standalone="no"?>
<!-- Creator: CorelDRAW X6 -->

<svg
   xml:space="preserve"
   width="103.26956mm"
   height="23.200001mm"
   version="1.1"
   style="clip-rule:evenodd;fill-rule:evenodd;image-rendering:optimizeQuality;shape-rendering:geometricPrecision;text-rendering:geometricPrecision"
   viewBox="0 0 10326.956 2320.0001"
   id="svg19"
   sodipodi:docname="logo_VLK_s_textom_crop.svg"
   inkscape:version="1.1.2 (0a00cf5339, 2022-02-04)"
   xmlns:inkscape="http://www.inkscape.org/namespaces/inkscape"
   xmlns:sodipodi="http://sodipodi.sourceforge.net/DTD/sodipodi-0.dtd"
   xmlns="http://www.w3.org/2000/svg"
   xmlns:svg="http://www.w3.org/2000/svg"
   xmlns:rdf="http://www.w3.org/1999/02/22-rdf-syntax-ns#"
   xmlns:cc="http://creativecommons.org/ns#"
   xmlns:dc="http://purl.org/dc/elements/1.1/"><metadata
   id="metadata23"><rdf:RDF><cc:Work
       rdf:about=""><dc:format>image/svg+xml</dc:format><dc:type
         rdf:resource="http://purl.org/dc/dcmitype/StillImage" /></cc:Work></rdf:RDF></metadata><sodipodi:namedview
   pagecolor="#ffffff"
   bordercolor="#666666"
   borderopacity="1"
   objecttolerance="10"
   gridtolerance="10"
   guidetolerance="10"
   inkscape:pageopacity="0"
   inkscape:pageshadow="2"
   inkscape:window-width="1920"
   inkscape:window-height="1029"
   id="namedview21"
   showgrid="false"
   fit-margin-top="2"
   fit-margin-left="2"
   fit-margin-right="2"
   fit-margin-bottom="2"
   inkscape:zoom="1.1893651"
   inkscape:cx="256.43934"
   inkscape:cy="-63.89964"
   inkscape:window-x="0"
   inkscape:window-y="27"
   inkscape:window-maximized="1"
   inkscape:current-layer="Vrstva_x0020_1"
   inkscape:pagecheckerboard="0"
   inkscape:document-units="mm"
   height="23.2mm" />
 <defs
   id="defs4">
  <style
   type="text/css"
   id="style2">
   <![CDATA[
    .fil0 {fill:#2B2A29}
   ]]>
  </style>
 </defs>
 <g
   id="Vrstva_x0020_1"
   transform="translate(-1720.72,-4000.8893)"
   inkscape:label="Vrstva 1"
   inkscape:groupmode="layer">
  <metadata
   id="CorelCorpID_0Corel-Layer" />
  <path
   class="fil0"
   d="m 4736.8234,5899.5516 c -5,44 -46,260 -89,245 -63,-20 -68,-239 -69,-323 -2,-142 16,-339 101,-343 77,-5 66,358 58,420 z m -265,-26 c 0,173 33,310 104,410 23,30 76,38 114,23 155,-89 153,-539 133,-733 -12,-100 -40,-216 -120,-247 -76,-30 -138,51 -165,125 -49,135 -66,280 -66,422 z m -287,-260 c 2,-36 35,-150 79,-133 56,21 51,97 61,142 8,82 12,165 10,249 0,3 -2,5 -2,8 -5,46 -16,84 -25,125 -3,15 -21,114 -56,104 -109,-35 -86,-386 -68,-494 z m -109,-20 c -21,105 -20,196 -16,303 0,3 0,5 0,7 3,64 10,122 21,173 8,35 21,68 35,96 76,158 173,168 250,21 33,-82 58,-163 58,-255 5,-112 12,-219 2,-329 -21,-102 -23,-194 -104,-265 -33,-30 -59,-30 -109,-8 -43,20 -68,61 -87,107 -21,46 -38,97 -49,152 z m -109,651 c 8,-28 23,-91 31,-124 18,-72 8,-155 2,-214 -7,-59 -44,-112 -59,-170 -3,-13 -8,-28 -12,-41 -7,-33 -5,-76 7,-110 20,-56 49,-117 79,-166 26,-44 12,-86 -15,-86 -105,2 -188,199 -194,280 -7,86 2,138 16,186 15,49 33,92 48,135 26,74 2,201 2,282 0,84 71,104 96,28 z m -308,-484 c 0,-18 0,-36 3,-54 2,-56 12,-102 48,-145 26,-46 185,-194 84,-231 -16,-8 -35,-7 -54,7 -81,56 -138,140 -171,269 -10,35 -15,61 -18,94 -7,48 -3,94 -5,142 -2,51 10,114 23,161 15,49 96,298 193,285 54,-8 77,-56 41,-109 -51,-74 -203,-247 -64,-239 20,2 30,-13 33,-40 7,-35 -5,-58 -41,-72 -23,-3 -41,-13 -56,-26 -8,-12 -12,-26 -15,-41 z m -143,-395 c -12,-21 -28,-31 -54,-36 -124,-30 -140,310 -142,409 -5,189 -18,301 43,476 26,74 158,133 232,68 33,-30 3,-66 -5,-79 -31,-26 -64,-36 -92,-68 -40,-66 -48,-120 -48,-199 2,-36 0,-77 3,-115 3,-33 15,-68 21,-104 5,-38 13,-74 21,-110 8,-41 36,-208 20,-241 z m 4740,387 c -46,-87 127,-329 130,-339 20,-63 0,-87 -20,-91 -114,-20 -201,211 -227,305 -25,92 -28,191 -16,285 10,92 130,446 237,371 122,-86 -168,-300 -94,-359 38,-30 130,18 122,-77 -7,-96 -92,-20 -132,-94 z m -544,-412 c -16,-7 -44,-2 -58,7 -16,12 -28,28 -38,40 -26,30 -40,63 -59,99 -30,58 -49,117 -63,175 -7,36 -23,77 -23,112 0,35 7,66 15,94 13,40 86,171 84,198 -3,79 -7,133 5,196 5,25 41,44 63,31 51,-35 69,-264 59,-321 -10,-61 -58,-112 -74,-165 -13,-38 2,-79 5,-119 3,-31 12,-61 23,-89 25,-59 61,-112 71,-170 5,-35 18,-74 -10,-87 z m 124,5 c -25,26 -40,53 -48,87 -7,20 -16,46 -21,73 -7,30 -13,71 -12,110 3,36 2,71 2,105 0,23 2,53 0,97 -3,41 5,81 8,120 8,87 3,175 -3,250 -7,68 15,107 64,107 87,3 74,-150 63,-204 -8,-43 31,-66 54,-8 30,71 56,142 110,193 23,20 46,13 76,8 51,-10 12,-112 -3,-138 -26,-46 -49,-92 -74,-143 -13,-26 -23,-58 -26,-96 -5,-41 -5,-79 -2,-112 5,-44 10,-77 15,-102 2,-5 3,-13 5,-20 7,-20 10,-38 18,-53 31,-58 56,-130 76,-185 12,-33 7,-142 -63,-96 -49,33 -59,63 -94,132 -30,59 -40,137 -49,213 -2,10 -2,18 -2,25 -2,46 -12,96 -43,94 -20,-2 -10,-38 -12,-61 -2,-44 -2,-87 2,-127 3,-25 8,-44 15,-63 2,-7 7,-13 8,-21 15,-73 23,-79 33,-147 7,-44 -72,-81 -97,-40 z m -778,133 c -49,-21 -188,127 -198,137 -79,92 -142,208 -160,354 -5,41 -15,112 -18,188 -2,35 8,71 25,92 31,43 71,59 97,25 21,-30 18,-64 21,-87 3,-28 7,-35 7,-56 2,-71 -10,-94 -5,-137 8,-79 23,-145 59,-196 15,-23 35,-43 49,-38 25,8 31,46 30,87 -3,84 -10,171 -20,254 -5,40 -2,81 3,105 3,26 13,46 30,66 20,23 48,28 73,13 33,-21 28,-35 36,-89 5,-35 10,-77 8,-117 -7,-157 -7,-303 2,-445 2,-33 0,-53 0,-61 -2,-38 -12,-84 -40,-96 z m 245,-170 c -104,-12 -150,5 -153,105 0,33 0,64 0,86 -2,61 2,117 3,171 0,79 8,137 10,199 3,59 3,117 0,173 -3,43 -3,191 16,222 13,21 26,33 58,23 58,-16 44,-49 48,-97 5,-69 -5,-135 -2,-181 2,-21 25,-12 28,5 7,31 21,66 33,99 13,36 26,68 35,110 2,16 25,89 107,54 13,-7 12,-81 12,-104 -2,-21 -69,-155 -89,-226 -8,-28 -16,-117 -10,-148 8,-51 31,-125 53,-166 30,-58 33,-66 44,-125 5,-28 -16,-99 -26,-109 -30,-33 -66,-71 -166,-92 z m 66,178 c 2,63 10,69 -28,150 -15,35 -23,81 -38,124 -3,12 -16,25 -25,15 -25,-25 -18,-61 -18,-114 -2,-51 -5,-102 -2,-152 2,-21 5,-49 16,-64 20,-25 92,8 94,41 z m -478,-147 c -40,38 -77,77 -99,130 -16,40 0,61 26,69 20,7 46,5 66,-18 35,-40 64,-51 87,-87 21,-33 84,-135 68,-161 -30,-49 -140,61 -148,68 z m -501,0 c -12,-16 -43,-26 -79,-21 -165,53 -89,484 -84,600 3,38 7,74 7,112 7,87 -7,157 23,227 8,20 18,59 87,36 35,-21 25,-76 20,-143 -3,-56 -8,-43 -13,-92 -7,-81 -21,-188 -28,-264 -5,-49 -20,-119 13,-115 36,3 48,178 49,201 10,71 26,135 36,209 7,56 20,160 63,196 16,13 35,13 68,5 76,-20 59,-140 63,-193 5,-77 12,-160 18,-244 0,-20 3,-61 8,-104 7,-48 33,-147 51,-191 12,-28 30,-82 36,-117 25,-128 -68,-161 -124,-66 -35,61 -63,148 -72,257 -3,33 -5,74 -7,105 -8,77 3,145 -7,204 -3,16 -30,2 -31,-18 -2,-31 -7,-97 -7,-133 -33,-367 -43,-374 -91,-451 z m -552,321 c -3,30 -48,394 68,410 41,7 59,-38 53,-94 -3,-30 -13,-117 -2,-185 13,-82 15,-147 59,-166 33,-13 31,250 30,273 0,7 0,12 0,18 0,21 0,53 -3,94 -3,89 -12,170 13,242 5,16 16,46 91,38 25,-13 30,-40 30,-82 7,-114 5,-193 -3,-254 -3,-20 -2,-35 -3,-58 0,-133 0,-283 -35,-418 -15,-54 -40,-209 -138,-152 -86,68 -135,175 -158,333 z m -702,-247 c 21,-28 35,-54 7,-86 -21,-23 -59,-12 -76,2 -170,145 -193,376 -194,588 3,53 12,100 25,145 8,26 122,300 219,232 46,-31 -23,-166 -43,-196 -53,-76 -77,-180 -73,-308 0,-84 15,-153 41,-209 28,-61 61,-115 94,-168 z m 306,54 c 12,-112 -15,-147 -74,-137 -21,3 -44,74 -49,104 -7,64 -2,236 -21,310 -5,18 -35,31 -51,23 -38,-30 -12,-112 -5,-153 13,-87 -36,-140 -82,-69 -99,145 -96,315 -61,486 13,56 72,130 109,94 58,-56 -21,-161 46,-206 15,-8 33,5 33,20 3,96 -2,193 10,298 3,20 15,102 112,68 18,-15 25,-31 25,-66 5,-262 -18,-511 10,-771 z m 163,259 c 3,-46 -5,-193 8,-245 5,-21 18,-28 36,-13 25,21 35,89 30,156 -3,40 -15,82 -18,110 -13,79 -5,120 -31,122 -18,0 -30,-71 -25,-130 z m -99,-323 c -16,115 -10,232 -12,349 0,97 0,193 7,290 3,63 -10,270 84,262 20,-10 49,-16 49,-44 5,-36 -18,-175 10,-181 15,-3 38,31 43,41 20,33 165,236 237,165 54,-51 -38,-112 -81,-161 -38,-48 -64,-109 -76,-185 -5,-43 -7,-76 -5,-94 -2,-40 2,-71 10,-96 20,-71 36,-124 30,-203 -5,-77 -26,-132 -69,-175 -46,-48 -135,-66 -191,-41 -18,8 -35,54 -36,72 z m 6213.9986,178 c -10,-18 -38,-54 -58,-53 -76,10 -58,229 -72,358 -2,25 -7,44 -8,61 -2,16 0,40 2,66 3,133 -18,313 122,264 46,-16 54,-148 38,-209 -20,-76 -12,-232 -16,-328 -3,-54 12,-96 -2,-148 -2,-5 -3,-7 -5,-10 z m 8,-102 c 77,-5 125,-229 -25,-206 -33,5 -58,28 -69,56 -13,36 -10,91 13,124 15,20 43,28 81,26 z m 265,-36 c 8,-28 26,-63 26,-87 2,-35 -28,-64 -71,-38 -30,18 -143,244 -157,358 -7,49 -7,44 -10,69 -5,43 3,44 -3,79 -20,97 36,341 96,405 48,51 87,56 117,30 21,-20 20,-56 3,-109 -16,-56 -173,-264 -35,-241 43,8 79,-56 59,-99 -21,-48 -92,-18 -107,-54 -13,-30 -8,-68 -2,-107 12,-77 68,-160 82,-206 z m -456,-99 c -3,-15 -30,-40 -63,-25 -82,35 -53,171 -68,236 -5,20 -15,339 -13,432 2,18 -15,5 -15,0 -15,-188 -3,-333 -30,-502 -30,-198 -153,-245 -204,-48 -30,114 -40,239 -40,357 0,46 -5,84 -7,117 -7,112 5,229 44,334 10,26 71,38 82,28 86,-77 -12,-422 -18,-539 -2,-31 23,-28 30,-13 38,91 33,236 68,354 25,84 26,163 81,193 140,69 143,-120 138,-209 -13,-178 3,-349 20,-504 10,-81 13,-138 -7,-211 z m -451,-38 c -61,-51 -170,198 -193,254 -25,59 -41,120 -53,180 l -26,140 c -30,155 46,331 152,384 112,54 122,-73 43,-166 -30,-35 -72,-110 -66,-168 5,-40 97,20 104,-54 8,-82 -25,-87 -56,-89 -31,-3 -36,-38 -21,-110 23,-102 91,-176 125,-260 12,-28 30,-76 -8,-109 z m -357,130 c 3,0 3,0 8,0 40,3 26,76 7,124 -5,15 -21,64 -25,76 -13,33 -18,2 -20,-8 -3,-35 -5,-183 30,-191 z m -107,-63 c -40,175 -8,354 -15,547 -3,112 -25,219 12,331 3,12 8,38 61,33 87,-10 54,-196 46,-254 -21,-191 35,-280 107,-409 31,-58 41,-127 25,-217 -3,-10 -35,-81 -77,-91 -49,-12 -143,-5 -158,59 z m -82,18 c -3,-16 -8,-84 -81,-76 -59,5 -33,236 -30,265 12,87 12,176 7,264 -2,20 -41,259 -68,239 -96,-71 -74,-415 -40,-504 8,-21 66,-260 -13,-264 -92,-3 -129,277 -135,330 -13,127 16,634 188,636 148,3 181,-320 185,-412 3,-173 10,-318 -13,-478 z m -412,-82 c -94,15 -110,290 -123.999,361 -9.9998,53 -3,140 -30,138 -20,-2 -8,-53 -7,-86 2,-115 20,-91 20,-351 -2,-66 -132,-77 -133,20 -2,221 2,394 10,615 5,87 -15,170 3,244 12,58 110,59 114,-10 3,-44 7,-114 2,-153 -5,-51 -21,-86 -15,-97 10,-16 16,-18 31.0002,-3 29.9988,31 25.9988,224 106.9988,293 16,13 61,25 82,-2 68,-77 -43,-216 -58,-283 -46,-191 -20,-372 51,-545 12,-30 18,-64 5,-107 -3,-12 -23,-38 -59,-33 z m -613.999,651 c 2,68 -30,209 -98.9996,209 -166,-3 -186,-407 -5,-390 86.9996,7 103.9996,105 103.9996,181 z m -164.9996,-316 c -255,115 -255,494 -2,639 41,25 119,15 156.9996,-15 196,-152 173,-526 -34.9996,-624 -21,-12 -99,-10 -120,0 z m 272.9996,-170 c 10,-48 68,36 117,46 8,2 53,2 63,-23 31,-81 -69,-165 -133,-181 -40,-10 -91,-5 -138,15 -28,12 -70.9996,87 -65.9996,125 8,87 18,124 106.9996,209 213,204 114,366 64,554 -28,104 104,96 130,5 72,-236 101,-448 -68,-623 -36,-38 -89,-77 -76,-127 z m -490.9996,26 c -86,188 -196,351 -236,558 -10,54 -2,109 25,158 7,13 63,68 81,68 72,0 122,8 185,2 30,-3 28,-69 15,-76 -329,-194 -2,-493 79,-700 5,-18 8,-36 12,-51 8,-49 2,-86 -18,-110 -15,-18 -38,-30 -68,-35 -74,-12 -303,-31 -265,94 18,64 142,15 189,40 15,8 7,35 2,53 z"
   id="path7"
   inkscape:connector-curvature="0"
   style="fill:#2b2a29" />
  <g
   id="_670524688"
   transform="translate(-193.04778,-188.97806)">
   <path
   class="fil0"
   d="m 2626,4627 c 0,-4 2,-5 2,-7 0,-3 1,-4 1,-15 v -7 c 1,-13 -5,-24 -12,-40 -4,-8 -9,-17 -17,-27 -24,-32 -54,-76 -61,-120 -2,-12 0,-29 -1,-39 -2,-22 3,-39 10,-53 3,-7 5,-15 9,-22 10,-22 20,-46 30,-68 1,-3 4,-10 6,-12 2,-3 1,-5 -1,-7 -3,-4 -7,-10 -13,-9 -4,0 -9,1 -13,2 -19,6 -35,16 -51,24 -28,14 -52,34 -74,51 -20,16 -37,33 -53,51 -2,2 -1,1 -3,3 -1,0 -2,-3 -2,-4 -7,-38 -14,-68 -16,-105 0,-2 -1,-4 -2,-5 -2,-4 -10,-13 -17,-16 -3,-1 -7,-1 -8,0 -89,83 -156,204 -189,291 -4,9 -6,19 -12,27 -49,62 -110,118 -151,190 -43,69 -61,142 -66,220 0,33 -2,65 -1,98 1,65 7,128 18,192 13,76 26,153 44,229 24,103 37,208 58,311 3,15 7,30 9,45 23,150 39,301 38,453 0,46 -8,92 -5,137 3,40 4,61 35,87 7,6 18,14 28,14 34,0 51,-12 71,-47 17,-30 27,-64 39,-96 5,-15 11,-30 15,-45 15,-48 26,-97 35,-146 6,-31 10,-61 14,-92 8,-82 19,-165 14,-248 -2,-34 -5,-69 -10,-103 -7,-45 -32,-132 -94,-113 -22,7 -29,45 -30,65 -1,10 0,20 2,30 16,102 22,204 19,308 -1,45 -6,91 -17,135 l -2,9 c -11,-159 -40,-314 -68,-478 -21,-127 -55,-261 -83,-398 -33,-156 -53,-338 16,-489 29,-65 69,-125 112,-181 14,-19 31,-36 48,-52 1,-1 2,-2 3,-3 1,-1 1,-2 1,-4 14,-53 28,-104 53,-152 l 20,-40 c 8,29 14,57 22,85 5,16 13,50 33,40 16,-3 20,-23 26,-34 28,-37 66,-69 103,-98 0,6 -1,11 0,17 -3,57 27,102 62,149 8,13 17,24 25,40 6,13 13,26 12,41 0,10 0,24 2,32 1,3 3,10 1,12 -2,4 -2,13 -1,20 2,87 80,204 142,281 11,13 15,35 -2,43 -11,6 -24,9 -37,13 -24,7 -58,-7 -63,-11 -26,-18 -51,-31 -69,-44 -24,-18 -46,-30 -66,-41 -8,-4 -42,-14 -59,-1 -8,7 -13,16 -15,26 -2,18 33,54 60,71 10,6 13,9 20,7 21,-6 4,-20 -1,-24 -2,-2 -4,-5 -5,-9 -1,-3 -1,-6 0,-8 1,-2 4,-3 8,-2 9,3 24,12 36,19 50,31 107,60 168,51 27,-5 53,-14 69,-37 12,-12 12,-25 10,-40 0,-4 1,-14 -2,-17 -29,-37 -59,-74 -82,-111 -21,-35 -45,-67 -57,-105 -12,-29 -18,-70 -19,-97 z"
   id="path9"
   inkscape:connector-curvature="0"
   style="fill:#2b2a29" />
   <path
   class="fil0"
   d="m 2432,4655 c 3,2 6,4 9,6 16,15 25,30 35,46 3,5 6,11 10,17 9,14 27,24 41,18 13,-5 1,-35 -7,-48 -14,-23 -48,-53 -80,-45 -1,0 -2,1 -3,1 -1,1 -3,4 -5,5 z"
   id="path11"
   inkscape:connector-curvature="0"
   style="fill:#2b2a29" />
   <path
   class="fil0"
   d="m 2445,5482 c -10,-11 -22,-22 -36,-24 -9,-1 -18,0 -26,4 -13,7 -19,25 -26,44 -9,25 -2,57 -2,79 0,65 4,129 6,193 0,8 0,17 -1,25 -1,23 -3,45 -4,68 -2,39 -4,77 -6,116 -2,27 -4,55 -7,82 -8,69 -20,137 -35,205 -6,29 -14,56 -24,84 -11,31 -22,63 -25,96 -2,19 15,42 33,44 16,2 32,2 48,2 29,0 59,-1 91,-1 16,0 25,0 40,-2 4,-1 10,-3 12,-6 7,-9 12,-22 13,-34 9,-66 -63,-83 -114,-72 l 9,-67 c 8,-59 25,-116 36,-174 15,-80 30,-160 33,-239 2,-41 6,-82 8,-123 2,-34 3,-71 4,-102 0,-43 -1,-97 -6,-143 -2,-21 -10,-40 -23,-55 z"
   id="path13"
   inkscape:connector-curvature="0"
   style="fill:#2b2a29" />
   <path
   class="fil0"
   d="m 2596,5638 c -13,-17 -30,-23 -51,-19 -31,6 -38,60 -42,85 -7,47 -3,93 -6,140 -4,81 -14,161 -28,241 -1,4 -2,9 -2,13 -5,25 -9,49 -15,74 -6,24 -10,50 -19,73 -17,45 -16,95 12,107 16,7 35,1 42,-3 30,-13 41,-72 47,-96 8,-31 14,-61 20,-92 21,46 40,95 44,182 2,42 2,85 20,124 17,36 64,43 87,11 17,-24 4,-82 2,-107 -5,-98 -28,-197 -70,-287 l -8,-17 c 20,-25 41,-50 59,-77 8,-12 15,-25 23,-37 41,-70 77,-146 112,-220 10,-20 19,-43 27,-64 8,-22 16,-46 21,-70 7,-30 15,-70 -19,-87 -17,-8 -47,-5 -57,12 -8,13 -16,25 -22,39 -20,45 -30,94 -50,139 -11,26 -21,54 -33,80 -20,44 -42,92 -69,132 -1,3 -23,42 -27,42 v 1 l -3,3 c 5,-83 20,-172 19,-240 -1,-30 0,-57 -15,-83 z"
   id="path15"
   inkscape:connector-curvature="0"
   style="fill:#2b2a29" />
  </g>
 </g>
</svg>
